<svg width="531" height="215" viewBox="0 0 531 215" fill="none" xmlns="http://www.w3.org/2000/svg">
<line x1="267.5" y1="2.49981" x2="267.508" y2="107.5" stroke="white" stroke-width="5" stroke-linecap="round"/>
<line x1="238.5" y1="122.5" x2="168.5" y2="122.5" stroke="white" stroke-width="5" stroke-linecap="round"/>
<line x1="365.5" y1="122.5" x2="295.5" y2="122.5" stroke="white" stroke-width="5" stroke-linecap="round"/>
<path d="M252 42.5181C249.935 35.6788 242.171 22 227.635 22C213.098 22 206.331 32.5044 204.542 39.3438C201.926 49.4474 207.399 80.6632 252 112" stroke="white" stroke-width="5" stroke-linecap="round"/>
<path d="M283 42.5181C285.065 35.6788 292.829 22 307.365 22C321.902 22 328.669 32.5044 330.458 39.3438C333.074 49.4474 327.601 80.6632 283 112" stroke="white" stroke-width="5" stroke-linecap="round"/>
<path d="M16.2656 190.227C16.2656 190.93 15.6328 191.281 14.3672 191.281C13.0859 191.281 12.4453 190.93 12.4453 190.227V161.047H2.48438C1.21875 161.047 0.585938 160.688 0.585938 159.969C0.585938 159.266 1.21875 158.914 2.48438 158.914H26.2266C27.4922 158.914 28.125 159.266 28.125 159.969C28.125 160.688 27.4922 161.047 26.2266 161.047H16.2656V190.227ZM62.6719 190.695C62.4844 191.273 61.7578 191.562 60.4922 191.562C59.3672 191.562 58.7266 191.273 58.5703 190.695L51.8906 164.891L45.3047 190.672C45.1641 191.266 44.4688 191.562 43.2188 191.562C42.0625 191.562 41.3984 191.289 41.2266 190.742L30.5625 160.039C30.5156 159.898 30.4922 159.773 30.4922 159.664C30.4922 158.977 31.1641 158.633 32.5078 158.633C33.6328 158.633 34.2969 158.93 34.5 159.523L43.6875 186.102L50.4844 159.477C50.625 158.914 51.3125 158.633 52.5469 158.633C53.7188 158.633 54.3828 158.938 54.5391 159.547L61.4297 186.102L70.5703 159.195C70.7109 158.82 71.1641 158.633 71.9297 158.633C72.8516 158.633 73.3125 158.836 73.3125 159.242C73.3125 159.352 73.2891 159.469 73.2422 159.594L62.6719 190.695ZM76.2656 160.25C76.2656 159.547 76.8984 159.195 78.1641 159.195H99.3984C100.664 159.195 101.297 159.547 101.297 160.25C101.297 160.969 100.664 161.328 99.3984 161.328H80.0859V174.008H96.6094C97.8906 174.008 98.5312 174.367 98.5312 175.086C98.5312 175.805 97.8906 176.164 96.6094 176.164H80.0859V188.867H99.3984C100.664 188.867 101.297 189.227 101.297 189.945C101.297 190.648 100.664 191 99.3984 191H78.1641C76.8984 191 76.2656 190.648 76.2656 189.945V160.25ZM105.422 159.688C105.422 158.984 106.062 158.633 107.344 158.633C108.609 158.633 109.242 158.984 109.242 159.688V188.867H125.391C126.672 188.867 127.312 189.227 127.312 189.945C127.312 190.648 126.672 191 125.391 191H107.344C106.062 191 105.422 190.648 105.422 189.945V159.688ZM139.734 191.562C138.656 191.562 138.008 191.297 137.789 190.766L124.852 159.945C124.789 159.789 124.758 159.68 124.758 159.617C124.758 158.961 125.445 158.633 126.82 158.633C127.867 158.633 128.508 158.898 128.742 159.43L140.391 187.203L152.18 159.172C152.336 158.812 152.797 158.633 153.562 158.633C154.469 158.633 154.922 158.859 154.922 159.312C154.922 159.375 154.898 159.453 154.852 159.547L141.75 190.719C141.516 191.281 140.844 191.562 139.734 191.562ZM157.875 160.25C157.875 159.547 158.508 159.195 159.773 159.195H181.008C182.273 159.195 182.906 159.547 182.906 160.25C182.906 160.969 182.273 161.328 181.008 161.328H161.695V174.008H178.219C179.5 174.008 180.141 174.367 180.141 175.086C180.141 175.805 179.5 176.164 178.219 176.164H161.695V188.867H181.008C182.273 188.867 182.906 189.227 182.906 189.945C182.906 190.648 182.273 191 181.008 191H159.773C158.508 191 157.875 190.648 157.875 189.945V160.25ZM228.469 191.562C227.188 191.562 226.547 191.219 226.547 190.531V166.227L216.703 190.766C216.5 191.297 215.812 191.562 214.641 191.562C213.469 191.562 212.766 191.297 212.531 190.766L201.516 165.852V190.906C201.516 191.344 201.055 191.562 200.133 191.562C199.211 191.562 198.75 191.344 198.75 190.906V159.711C198.75 158.992 199.531 158.633 201.094 158.633C202.156 158.633 202.812 158.898 203.062 159.43L215.273 187.18L226.453 159.43C226.672 158.898 227.328 158.633 228.422 158.633C229.719 158.602 230.367 158.961 230.367 159.711V190.531C230.367 191.219 229.734 191.562 228.469 191.562ZM264.328 190.531C264.328 191.219 263.609 191.562 262.172 191.562C261.062 191.562 260.391 191.289 260.156 190.742L255.773 180.664H240.469L236.062 191.023C235.891 191.383 235.453 191.562 234.75 191.562C233.797 191.562 233.32 191.328 233.32 190.859C233.32 190.844 233.336 190.773 233.367 190.648L246.656 159.406C246.859 158.891 247.594 158.633 248.859 158.633C249.953 158.633 250.625 158.906 250.875 159.453L264.188 190.109C264.281 190.328 264.328 190.469 264.328 190.531ZM254.859 178.531L248.039 162.828L241.359 178.531H254.859ZM269.18 159.195H280.102C284.742 159.195 288.312 160.781 290.812 163.953C293.328 167.125 294.586 170.859 294.586 175.156C294.602 179.484 293.352 183.211 290.836 186.336C288.336 189.445 284.758 191 280.102 191H269.18C267.914 191 267.281 190.648 267.281 189.945V160.25C267.281 159.547 267.914 159.195 269.18 159.195ZM280.102 161.328H271.102V188.867H280.102C283.742 188.867 286.438 187.383 288.188 184.414C289.938 181.43 290.805 178.344 290.789 175.156C290.789 172 289.914 168.906 288.164 165.875C286.43 162.844 283.742 161.328 280.102 161.328ZM300.773 190.508C300.773 191.211 300.141 191.562 298.875 191.562C297.594 191.562 296.953 191.211 296.953 190.508V159.688C296.953 158.984 297.594 158.633 298.875 158.633C300.141 158.633 300.773 158.984 300.773 159.688V190.508ZM329.859 181.859C329.859 184.875 328.461 187.25 325.664 188.984C322.883 190.703 319.812 191.562 316.453 191.562C313.625 191.562 310.852 190.898 308.133 189.57C305.43 188.227 303.797 186.023 303.234 182.961C303.172 182.617 303.141 182.406 303.141 182.328C303.141 181.641 303.797 181.297 305.109 181.297C306.172 181.297 306.781 181.602 306.938 182.211C308.203 187.07 311.43 189.477 316.617 189.43C318.711 189.398 320.805 188.766 322.898 187.531C324.992 186.281 326.039 184.461 326.039 182.07C326.039 180.352 325 179.008 322.922 178.039C321.391 177.32 319.461 176.836 317.133 176.586C315.727 176.445 314.242 176.219 312.68 175.906C311.133 175.578 309.711 175.078 308.414 174.406C305.445 172.875 303.961 170.523 303.961 167.352C303.961 164.195 305.43 161.953 308.367 160.625C311.305 159.297 314.078 158.633 316.688 158.633C319.297 158.633 321.781 159.234 324.141 160.438C326.516 161.641 328.078 163.578 328.828 166.25C328.922 166.578 328.969 166.781 328.969 166.859C328.969 167.5 328.305 167.82 326.977 167.82C325.914 167.82 325.305 167.508 325.148 166.883C324.211 162.805 321.398 160.766 316.711 160.766C314.742 160.766 312.758 161.281 310.758 162.312C308.773 163.328 307.781 165 307.781 167.328C307.781 168.969 308.93 170.297 311.227 171.312C312.289 171.766 313.406 172.109 314.578 172.344C315.75 172.578 316.727 172.734 317.508 172.812C319.055 172.969 320.625 173.219 322.219 173.562C323.812 173.906 325.219 174.469 326.438 175.25C328.719 176.75 329.859 178.953 329.859 181.859ZM347.977 158.633C352.836 158.633 356.68 160.219 359.508 163.391C362.336 166.562 363.75 170.461 363.75 175.086C363.75 179.727 362.336 183.633 359.508 186.805C356.68 189.977 352.836 191.562 347.977 191.562C343.117 191.562 339.273 189.977 336.445 186.805C333.617 183.633 332.203 179.727 332.203 175.086C332.203 170.461 333.617 166.562 336.445 163.391C339.273 160.219 343.117 158.633 347.977 158.633ZM347.977 160.766C344.039 160.766 341.062 162.273 339.047 165.289C337.031 168.289 336.023 171.555 336.023 175.086C336.023 178.617 337.031 181.891 339.047 184.906C341.062 187.922 344.039 189.43 347.977 189.43C351.914 189.43 354.891 187.922 356.906 184.906C358.922 181.891 359.93 178.617 359.93 175.086C359.93 171.555 358.922 168.289 356.906 165.289C354.891 162.273 351.914 160.766 347.977 160.766ZM392.039 191.562C390.992 191.562 390.281 191.312 389.906 190.812L370.031 163.695V190.836C370.031 191.32 369.57 191.562 368.648 191.562C367.727 191.562 367.266 191.32 367.266 190.836V159.945C367.266 159.07 368.047 158.633 369.609 158.633C370.672 158.633 371.391 158.883 371.766 159.383L391.641 186.5V159.383C391.641 158.883 392.102 158.633 393.023 158.633C393.945 158.633 394.406 158.883 394.406 159.383V190.297C394.406 191.141 393.617 191.562 392.039 191.562ZM414.633 190.484C414.633 191.203 414 191.562 412.734 191.562C411.453 191.562 410.812 191.203 410.812 190.484V160.273C410.812 159.555 411.453 159.195 412.734 159.195H427.477C429.93 159.195 432.148 159.977 434.133 161.539C436.117 163.086 437.109 165.164 437.109 167.773C437.109 170.367 436.117 172.445 434.133 174.008C432.148 175.57 429.93 176.352 427.477 176.352H414.633V190.484ZM414.633 161.328V174.219H427.477C429.133 174.219 430.516 173.539 431.625 172.18C432.734 170.82 433.289 169.352 433.289 167.773C433.289 166.195 432.734 164.727 431.625 163.367C430.516 162.008 429.133 161.328 427.477 161.328H414.633ZM469.875 190.531C469.875 191.219 469.156 191.562 467.719 191.562C466.609 191.562 465.938 191.289 465.703 190.742L461.32 180.664H446.016L441.609 191.023C441.438 191.383 441 191.562 440.297 191.562C439.344 191.562 438.867 191.328 438.867 190.859C438.867 190.844 438.883 190.773 438.914 190.648L452.203 159.406C452.406 158.891 453.141 158.633 454.406 158.633C455.5 158.633 456.172 158.906 456.422 159.453L469.734 190.109C469.828 190.328 469.875 190.469 469.875 190.531ZM460.406 178.531L453.586 162.828L446.906 178.531H460.406ZM474.727 191.562C473.461 191.562 472.828 191.203 472.828 190.484V160.273C472.828 159.555 473.461 159.195 474.727 159.195H489.234C491.703 159.195 493.961 159.969 496.008 161.516C498.07 163.047 499.102 165.133 499.102 167.773C499.102 170.055 498.281 171.961 496.641 173.492C495 175.008 493.109 175.922 490.969 176.234C491.906 177.016 492.672 177.961 493.266 179.07C493.875 180.18 494.445 181.344 494.977 182.562C495.617 183.984 496.32 185.367 497.086 186.711C497.852 188.039 498.875 189.031 500.156 189.688C500.578 189.906 500.789 190.172 500.789 190.484C500.789 190.75 500.625 190.984 500.297 191.188C499.922 191.422 499.453 191.539 498.891 191.539C498.375 191.539 497.953 191.453 497.625 191.281C495.891 190.406 494.578 189.219 493.688 187.719C492.797 186.203 491.992 184.648 491.273 183.055C490.523 181.367 489.711 179.828 488.836 178.438C487.961 177.047 486.703 176.352 485.062 176.352H476.648V190.484C476.648 191.203 476.008 191.562 474.727 191.562ZM489.234 174.219C493.266 174.219 495.281 172.07 495.281 167.773C495.281 163.477 493.266 161.328 489.234 161.328H476.648V174.219H489.234ZM527.812 191.562C526.719 191.562 525.992 191.305 525.633 190.789L513.797 174.828L508.125 180.125V190.602C508.125 191.242 507.484 191.562 506.203 191.562C504.938 191.562 504.305 191.242 504.305 190.602V159.594C504.305 158.953 504.938 158.633 506.203 158.633C507.484 158.633 508.125 158.953 508.125 159.594V176.656L527.039 159.055C527.336 158.773 527.805 158.633 528.445 158.633C528.664 158.633 528.93 158.664 529.242 158.727C529.836 158.867 530.133 159.109 530.133 159.453C530.133 159.562 530.062 159.688 529.922 159.828L516.797 172.062L530.016 189.992C530.125 190.148 530.18 190.289 530.18 190.414C530.18 190.852 529.797 191.172 529.031 191.375C528.641 191.5 528.234 191.562 527.812 191.562Z" fill="white"/>
</svg>
