<svg width="335" height="227" viewBox="0 0 335 227" fill="none" xmlns="http://www.w3.org/2000/svg">
<line x1="167.479" y1="2.52058" x2="166.529" y2="117.521" stroke="white" stroke-width="5" stroke-linecap="round"/>
<line x1="151.5" y1="121.5" x2="76.5" y2="121.5" stroke="white" stroke-width="5" stroke-linecap="round"/>
<line x1="256.5" y1="121.5" x2="181.5" y2="121.5" stroke="white" stroke-width="5" stroke-linecap="round"/>
<path d="M151 46.886C148.935 39.5907 141.171 25 126.635 25C112.098 25 105.331 36.2047 103.542 43.5C100.926 54.2772 106.399 87.5741 151 121" stroke="white" stroke-width="5" stroke-linecap="round"/>
<path d="M182 46.886C184.065 39.5907 191.829 25 206.365 25C220.902 25 227.669 36.2047 229.458 43.5C232.074 54.2772 226.601 87.5741 182 121" stroke="white" stroke-width="5" stroke-linecap="round"/>
<path d="M32.0625 224.562C30.7812 224.562 30.1406 224.219 30.1406 223.531V199.227L20.2969 223.766C20.0938 224.297 19.4062 224.562 18.2344 224.562C17.0625 224.562 16.3594 224.297 16.125 223.766L5.10938 198.852V223.906C5.10938 224.344 4.64844 224.562 3.72656 224.562C2.80469 224.562 2.34375 224.344 2.34375 223.906V192.711C2.34375 191.992 3.125 191.633 4.6875 191.633C5.75 191.633 6.40625 191.898 6.65625 192.43L18.8672 220.18L30.0469 192.43C30.2656 191.898 30.9219 191.633 32.0156 191.633C33.3125 191.602 33.9609 191.961 33.9609 192.711V223.531C33.9609 224.219 33.3281 224.562 32.0625 224.562ZM67.9219 223.531C67.9219 224.219 67.2031 224.562 65.7656 224.562C64.6562 224.562 63.9844 224.289 63.75 223.742L59.3672 213.664H44.0625L39.6562 224.023C39.4844 224.383 39.0469 224.562 38.3438 224.562C37.3906 224.562 36.9141 224.328 36.9141 223.859C36.9141 223.844 36.9297 223.773 36.9609 223.648L50.25 192.406C50.4531 191.891 51.1875 191.633 52.4531 191.633C53.5469 191.633 54.2188 191.906 54.4688 192.453L67.7812 223.109C67.875 223.328 67.9219 223.469 67.9219 223.531ZM58.4531 211.531L51.6328 195.828L44.9531 211.531H58.4531ZM72.7734 192.195H83.6953C88.3359 192.195 91.9062 193.781 94.4062 196.953C96.9219 200.125 98.1797 203.859 98.1797 208.156C98.1953 212.484 96.9453 216.211 94.4297 219.336C91.9297 222.445 88.3516 224 83.6953 224H72.7734C71.5078 224 70.875 223.648 70.875 222.945V193.25C70.875 192.547 71.5078 192.195 72.7734 192.195ZM83.6953 194.328H74.6953V221.867H83.6953C87.3359 221.867 90.0312 220.383 91.7812 217.414C93.5312 214.43 94.3984 211.344 94.3828 208.156C94.3828 205 93.5078 201.906 91.7578 198.875C90.0234 195.844 87.3359 194.328 83.6953 194.328ZM104.367 223.508C104.367 224.211 103.734 224.562 102.469 224.562C101.188 224.562 100.547 224.211 100.547 223.508V192.688C100.547 191.984 101.188 191.633 102.469 191.633C103.734 191.633 104.367 191.984 104.367 192.688V223.508ZM133.453 214.859C133.453 217.875 132.055 220.25 129.258 221.984C126.477 223.703 123.406 224.562 120.047 224.562C117.219 224.562 114.445 223.898 111.727 222.57C109.023 221.227 107.391 219.023 106.828 215.961C106.766 215.617 106.734 215.406 106.734 215.328C106.734 214.641 107.391 214.297 108.703 214.297C109.766 214.297 110.375 214.602 110.531 215.211C111.797 220.07 115.023 222.477 120.211 222.43C122.305 222.398 124.398 221.766 126.492 220.531C128.586 219.281 129.633 217.461 129.633 215.07C129.633 213.352 128.594 212.008 126.516 211.039C124.984 210.32 123.055 209.836 120.727 209.586C119.32 209.445 117.836 209.219 116.273 208.906C114.727 208.578 113.305 208.078 112.008 207.406C109.039 205.875 107.555 203.523 107.555 200.352C107.555 197.195 109.023 194.953 111.961 193.625C114.898 192.297 117.672 191.633 120.281 191.633C122.891 191.633 125.375 192.234 127.734 193.438C130.109 194.641 131.672 196.578 132.422 199.25C132.516 199.578 132.562 199.781 132.562 199.859C132.562 200.5 131.898 200.82 130.57 200.82C129.508 200.82 128.898 200.508 128.742 199.883C127.805 195.805 124.992 193.766 120.305 193.766C118.336 193.766 116.352 194.281 114.352 195.312C112.367 196.328 111.375 198 111.375 200.328C111.375 201.969 112.523 203.297 114.82 204.312C115.883 204.766 117 205.109 118.172 205.344C119.344 205.578 120.32 205.734 121.102 205.812C122.648 205.969 124.219 206.219 125.812 206.562C127.406 206.906 128.812 207.469 130.031 208.25C132.312 209.75 133.453 211.953 133.453 214.859ZM151.57 191.633C156.43 191.633 160.273 193.219 163.102 196.391C165.93 199.562 167.344 203.461 167.344 208.086C167.344 212.727 165.93 216.633 163.102 219.805C160.273 222.977 156.43 224.562 151.57 224.562C146.711 224.562 142.867 222.977 140.039 219.805C137.211 216.633 135.797 212.727 135.797 208.086C135.797 203.461 137.211 199.562 140.039 196.391C142.867 193.219 146.711 191.633 151.57 191.633ZM151.57 193.766C147.633 193.766 144.656 195.273 142.641 198.289C140.625 201.289 139.617 204.555 139.617 208.086C139.617 211.617 140.625 214.891 142.641 217.906C144.656 220.922 147.633 222.43 151.57 222.43C155.508 222.43 158.484 220.922 160.5 217.906C162.516 214.891 163.523 211.617 163.523 208.086C163.523 204.555 162.516 201.289 160.5 198.289C158.484 195.273 155.508 193.766 151.57 193.766ZM195.633 224.562C194.586 224.562 193.875 224.312 193.5 223.812L173.625 196.695V223.836C173.625 224.32 173.164 224.562 172.242 224.562C171.32 224.562 170.859 224.32 170.859 223.836V192.945C170.859 192.07 171.641 191.633 173.203 191.633C174.266 191.633 174.984 191.883 175.359 192.383L195.234 219.5V192.383C195.234 191.883 195.695 191.633 196.617 191.633C197.539 191.633 198 191.883 198 192.383V223.297C198 224.141 197.211 224.562 195.633 224.562ZM218.227 223.484C218.227 224.203 217.594 224.562 216.328 224.562C215.047 224.562 214.406 224.203 214.406 223.484V193.273C214.406 192.555 215.047 192.195 216.328 192.195H231.07C233.523 192.195 235.742 192.977 237.727 194.539C239.711 196.086 240.703 198.164 240.703 200.773C240.703 203.367 239.711 205.445 237.727 207.008C235.742 208.57 233.523 209.352 231.07 209.352H218.227V223.484ZM218.227 194.328V207.219H231.07C232.727 207.219 234.109 206.539 235.219 205.18C236.328 203.82 236.883 202.352 236.883 200.773C236.883 199.195 236.328 197.727 235.219 196.367C234.109 195.008 232.727 194.328 231.07 194.328H218.227ZM273.469 223.531C273.469 224.219 272.75 224.562 271.312 224.562C270.203 224.562 269.531 224.289 269.297 223.742L264.914 213.664H249.609L245.203 224.023C245.031 224.383 244.594 224.562 243.891 224.562C242.938 224.562 242.461 224.328 242.461 223.859C242.461 223.844 242.477 223.773 242.508 223.648L255.797 192.406C256 191.891 256.734 191.633 258 191.633C259.094 191.633 259.766 191.906 260.016 192.453L273.328 223.109C273.422 223.328 273.469 223.469 273.469 223.531ZM264 211.531L257.18 195.828L250.5 211.531H264ZM278.32 224.562C277.055 224.562 276.422 224.203 276.422 223.484V193.273C276.422 192.555 277.055 192.195 278.32 192.195H292.828C295.297 192.195 297.555 192.969 299.602 194.516C301.664 196.047 302.695 198.133 302.695 200.773C302.695 203.055 301.875 204.961 300.234 206.492C298.594 208.008 296.703 208.922 294.562 209.234C295.5 210.016 296.266 210.961 296.859 212.07C297.469 213.18 298.039 214.344 298.57 215.562C299.211 216.984 299.914 218.367 300.68 219.711C301.445 221.039 302.469 222.031 303.75 222.688C304.172 222.906 304.383 223.172 304.383 223.484C304.383 223.75 304.219 223.984 303.891 224.188C303.516 224.422 303.047 224.539 302.484 224.539C301.969 224.539 301.547 224.453 301.219 224.281C299.484 223.406 298.172 222.219 297.281 220.719C296.391 219.203 295.586 217.648 294.867 216.055C294.117 214.367 293.305 212.828 292.43 211.438C291.555 210.047 290.297 209.352 288.656 209.352H280.242V223.484C280.242 224.203 279.602 224.562 278.32 224.562ZM292.828 207.219C296.859 207.219 298.875 205.07 298.875 200.773C298.875 196.477 296.859 194.328 292.828 194.328H280.242V207.219H292.828ZM331.406 224.562C330.312 224.562 329.586 224.305 329.227 223.789L317.391 207.828L311.719 213.125V223.602C311.719 224.242 311.078 224.562 309.797 224.562C308.531 224.562 307.898 224.242 307.898 223.602V192.594C307.898 191.953 308.531 191.633 309.797 191.633C311.078 191.633 311.719 191.953 311.719 192.594V209.656L330.633 192.055C330.93 191.773 331.398 191.633 332.039 191.633C332.258 191.633 332.523 191.664 332.836 191.727C333.43 191.867 333.727 192.109 333.727 192.453C333.727 192.562 333.656 192.688 333.516 192.828L320.391 205.062L333.609 222.992C333.719 223.148 333.773 223.289 333.773 223.414C333.773 223.852 333.391 224.172 332.625 224.375C332.234 224.5 331.828 224.562 331.406 224.562Z" fill="white"/>
<path d="M137.92 174.12C136.027 174.12 135.08 173.187 135.08 171.32C135.08 169.853 135.627 168 136.72 165.76C136.773 165.653 137.027 165.187 137.48 164.36C137.96 163.507 138.64 162.293 139.52 160.72H137.44L137.36 160.64L137.4 160.4L137.44 160.36H139.72L142.6 155.32C142.84 155.427 143.12 155.48 143.44 155.48C143.813 155.48 144.213 155.347 144.64 155.08C145.093 154.84 145.4 154.573 145.56 154.28L145.68 154.32L142.08 160.36H144.84L144.88 160.4V160.64L144.8 160.72H141.88L139.16 165.52C137.533 168.373 136.72 170.573 136.72 172.12C136.72 173.213 137.147 173.76 138 173.76C139.333 173.76 140.68 173.013 142.04 171.52C142.413 171.12 142.853 170.52 143.36 169.72C143.867 168.92 144.293 168.16 144.64 167.44C144.693 167.307 144.76 167.267 144.84 167.32C144.947 167.347 144.973 167.427 144.92 167.56C144.52 168.36 144.093 169.12 143.64 169.84C143.213 170.56 142.72 171.227 142.16 171.84C140.773 173.36 139.36 174.12 137.92 174.12ZM145.438 174.36C143.918 174.36 143.158 173.587 143.158 172.04C143.158 170.333 144.784 166.693 148.038 161.12H148.118C148.304 161.253 148.531 161.32 148.798 161.32C149.358 161.32 150.051 161.053 150.878 160.52L150.918 160.6C149.851 161.773 148.611 163.707 147.198 166.4C145.651 169.333 144.878 171.44 144.878 172.72C144.878 173.493 145.184 173.88 145.798 173.88C146.678 173.88 147.731 173.053 148.958 171.4C149.784 170.28 150.518 169.053 151.158 167.72C151.531 167 151.984 166.107 152.518 165.04C153.078 163.947 153.731 162.693 154.478 161.28L154.558 161.24C154.904 161.427 155.251 161.52 155.598 161.52C156.238 161.52 156.731 161.253 157.078 160.72L157.158 160.8L153.878 166.52C152.704 168.573 152.118 170.467 152.118 172.2C152.118 173.32 152.491 173.88 153.238 173.88C155.184 173.88 157.238 172.133 159.398 168.64C159.078 168.16 158.918 167.373 158.918 166.28C158.918 165.96 158.931 165.64 158.958 165.32C159.011 164.973 159.064 164.627 159.118 164.28C159.251 163.587 159.451 162.933 159.718 162.32C160.118 161.387 160.544 160.92 160.998 160.92C161.504 160.92 161.758 161.36 161.758 162.24C161.758 162.987 161.571 163.92 161.198 165.04C160.851 166.16 160.331 167.387 159.638 168.72C159.718 169.067 159.904 169.413 160.198 169.76C160.518 170.107 160.878 170.28 161.278 170.28C162.424 170.28 163.464 169.333 164.398 167.44C164.478 167.28 164.558 167.227 164.638 167.28C164.744 167.333 164.758 167.427 164.678 167.56C164.171 168.547 163.651 169.293 163.118 169.8C162.611 170.307 162.011 170.56 161.318 170.56C160.491 170.56 159.878 170.093 159.478 169.16C159.131 169.827 158.744 170.453 158.318 171.04C157.891 171.6 157.424 172.107 156.918 172.56C155.691 173.68 154.398 174.24 153.038 174.24C151.171 174.24 150.238 173.387 150.238 171.68C150.238 171.387 150.264 171.08 150.318 170.76C150.371 170.413 150.451 170.067 150.558 169.72C148.904 172.813 147.198 174.36 145.438 174.36ZM167.163 174.4C165.856 174.4 164.95 174.04 164.443 173.32C163.936 172.573 163.683 171.533 163.683 170.2C163.683 168.28 164.483 166.28 166.083 164.2C167.79 162.013 169.563 160.92 171.403 160.92C172.763 160.92 173.443 161.387 173.443 162.32C173.443 163.467 172.816 164.667 171.563 165.92C169.776 167.733 167.896 168.64 165.923 168.64C165.603 169.467 165.443 170.293 165.443 171.12C165.443 172.027 165.616 172.733 165.963 173.24C166.31 173.747 166.816 174 167.483 174C168.176 174 168.896 173.813 169.643 173.44C170.39 173.04 171.03 172.573 171.563 172.04C172.016 171.587 172.523 170.973 173.083 170.2C173.67 169.4 174.256 168.427 174.843 167.28C174.923 167.147 175.003 167.08 175.083 167.08C175.243 167.08 175.243 167.213 175.083 167.48C174.63 168.387 174.136 169.253 173.603 170.08C173.096 170.907 172.416 171.707 171.563 172.48C171.056 172.987 170.416 173.44 169.643 173.84C168.87 174.213 168.043 174.4 167.163 174.4ZM165.963 168.36C167.43 168.36 169.07 167.573 170.883 166V165.96C171.39 165.533 171.87 164.947 172.323 164.2C172.856 163.373 173.123 162.667 173.123 162.08C173.123 161.653 172.803 161.44 172.163 161.44C171.15 161.44 169.923 162.347 168.483 164.16C167.816 164.96 167.283 165.707 166.883 166.4C166.483 167.093 166.176 167.747 165.963 168.36ZM177.475 174.32C175.315 174.32 174.235 172.893 174.235 170.04C174.235 168.333 174.608 166.347 175.355 164.08C175.701 163.04 176.075 162.04 176.475 161.08C176.875 160.12 177.301 159.227 177.755 158.4C178.315 157.387 178.901 156.427 179.515 155.52C180.128 154.587 180.781 153.707 181.475 152.88C183.475 150.4 185.181 149.16 186.595 149.16C187.181 149.16 187.475 149.44 187.475 150C187.475 150.747 187.168 151.893 186.555 153.44C184.501 158.533 181.168 163.173 176.555 167.36C176.101 169.04 175.875 170.387 175.875 171.4C175.875 173.133 176.421 174 177.515 174C177.888 174 178.248 173.933 178.595 173.8C178.941 173.64 179.248 173.467 179.515 173.28C180.235 172.72 180.848 172.067 181.355 171.32C181.861 170.573 182.301 169.827 182.675 169.08C183.048 168.333 183.381 167.707 183.675 167.2C183.755 167.067 183.835 167.027 183.915 167.08C183.995 167.107 184.008 167.187 183.955 167.32C183.421 168.44 182.835 169.587 182.195 170.76C181.555 171.933 180.741 172.867 179.755 173.56C179.035 174.067 178.275 174.32 177.475 174.32ZM176.675 166.96C177.208 166.507 177.768 165.947 178.355 165.28C178.941 164.613 179.568 163.853 180.235 163C180.901 162.147 181.581 161.2 182.275 160.16C182.968 159.12 183.661 158 184.355 156.8C186.221 153.627 187.155 151.413 187.155 150.16C187.155 149.707 187.008 149.48 186.715 149.48C185.728 149.48 183.968 151.6 181.435 155.84C180.768 157.04 180.168 158.2 179.635 159.32C178.995 160.733 178.421 162.08 177.915 163.36C177.435 164.613 177.021 165.813 176.675 166.96ZM185.224 174.2C183.57 174.2 182.744 173.16 182.744 171.08C182.744 170.227 182.93 169.24 183.304 168.12C183.517 167.56 183.904 166.693 184.464 165.52C185.05 164.347 185.824 162.88 186.784 161.12H186.864C187.077 161.253 187.304 161.32 187.544 161.32C188.184 161.32 188.864 161.053 189.584 160.52L189.624 160.6C188.877 161.347 187.597 163.413 185.784 166.8C184.717 168.853 184.184 170.72 184.184 172.4C184.184 173.387 184.504 173.88 185.144 173.88C186.77 173.88 188.65 172.133 190.784 168.64C190.49 168.133 190.344 167.347 190.344 166.28C190.344 165.96 190.357 165.64 190.384 165.32C190.437 164.973 190.49 164.627 190.544 164.28C190.624 163.667 190.824 163.013 191.144 162.32C191.544 161.387 191.957 160.92 192.384 160.92C192.89 160.92 193.144 161.36 193.144 162.24C193.144 163.787 192.45 165.893 191.064 168.56C191.117 168.907 191.29 169.28 191.584 169.68C191.904 170.08 192.277 170.28 192.704 170.28C193.85 170.28 194.89 169.333 195.824 167.44C195.904 167.28 195.984 167.227 196.064 167.28C196.17 167.333 196.184 167.427 196.104 167.56C195.597 168.547 195.077 169.293 194.544 169.8C194.037 170.307 193.437 170.56 192.744 170.56C192.37 170.56 192.01 170.44 191.664 170.2C191.344 169.933 191.077 169.547 190.864 169.04C190.25 170.32 189.504 171.413 188.624 172.32C187.45 173.573 186.317 174.2 185.224 174.2ZM198.569 174.4C197.263 174.4 196.356 174.04 195.849 173.32C195.343 172.573 195.089 171.533 195.089 170.2C195.089 168.28 195.889 166.28 197.489 164.2C199.196 162.013 200.969 160.92 202.809 160.92C204.169 160.92 204.849 161.387 204.849 162.32C204.849 163.467 204.223 164.667 202.969 165.92C201.183 167.733 199.303 168.64 197.329 168.64C197.009 169.467 196.849 170.293 196.849 171.12C196.849 172.027 197.023 172.733 197.369 173.24C197.716 173.747 198.223 174 198.889 174C199.583 174 200.303 173.813 201.049 173.44C201.796 173.04 202.436 172.573 202.969 172.04C203.423 171.587 203.929 170.973 204.489 170.2C205.076 169.4 205.663 168.427 206.249 167.28C206.329 167.147 206.409 167.08 206.489 167.08C206.649 167.08 206.649 167.213 206.489 167.48C206.036 168.387 205.543 169.253 205.009 170.08C204.503 170.907 203.823 171.707 202.969 172.48C202.463 172.987 201.823 173.44 201.049 173.84C200.276 174.213 199.449 174.4 198.569 174.4ZM197.369 168.36C198.836 168.36 200.476 167.573 202.289 166V165.96C202.796 165.533 203.276 164.947 203.729 164.2C204.263 163.373 204.529 162.667 204.529 162.08C204.529 161.653 204.209 161.44 203.569 161.44C202.556 161.44 201.329 162.347 199.889 164.16C199.223 164.96 198.689 165.707 198.289 166.4C197.889 167.093 197.583 167.747 197.369 168.36Z" fill="white"/>
</svg>
